<mxfile host="Electron" modified="2024-06-09T23:04:45.403Z" agent="Mozilla/5.0 (Windows NT 10.0; Win64; x64) AppleWebKit/537.36 (KHTML, like Gecko) draw.io/24.4.13 Chrome/124.0.6367.207 Electron/30.0.6 Safari/537.36" etag="nwgApyjqBlGgPuFrkGDM" version="24.4.13" type="device">
  <diagram name="Page-1" id="hmbOxdLb3snxUWDUiEkG">
    <mxGraphModel dx="1687" dy="984" grid="1" gridSize="10" guides="1" tooltips="1" connect="1" arrows="1" fold="1" page="1" pageScale="1" pageWidth="827" pageHeight="1169" math="0" shadow="0">
      <root>
        <mxCell id="0" />
        <mxCell id="1" parent="0" />
        <mxCell id="zA2tNoPU4KMe1xFhTegx-102" value="" style="rounded=0;whiteSpace=wrap;html=1;" vertex="1" parent="1">
          <mxGeometry x="700" y="40" width="270" height="257.5" as="geometry" />
        </mxCell>
        <mxCell id="zA2tNoPU4KMe1xFhTegx-36" style="edgeStyle=orthogonalEdgeStyle;rounded=0;orthogonalLoop=1;jettySize=auto;html=1;" edge="1" parent="1" source="zA2tNoPU4KMe1xFhTegx-1" target="zA2tNoPU4KMe1xFhTegx-11">
          <mxGeometry relative="1" as="geometry">
            <Array as="points">
              <mxPoint x="760" y="360" />
              <mxPoint x="760" y="360" />
            </Array>
          </mxGeometry>
        </mxCell>
        <mxCell id="zA2tNoPU4KMe1xFhTegx-40" value="Login Info" style="edgeLabel;html=1;align=center;verticalAlign=middle;resizable=0;points=[];" vertex="1" connectable="0" parent="zA2tNoPU4KMe1xFhTegx-36">
          <mxGeometry x="0.6933" y="-1" relative="1" as="geometry">
            <mxPoint x="36" as="offset" />
          </mxGeometry>
        </mxCell>
        <mxCell id="zA2tNoPU4KMe1xFhTegx-74" style="edgeStyle=orthogonalEdgeStyle;rounded=0;orthogonalLoop=1;jettySize=auto;html=1;" edge="1" parent="1" source="zA2tNoPU4KMe1xFhTegx-1" target="zA2tNoPU4KMe1xFhTegx-71">
          <mxGeometry relative="1" as="geometry">
            <Array as="points">
              <mxPoint x="870" y="400" />
              <mxPoint x="870" y="400" />
            </Array>
          </mxGeometry>
        </mxCell>
        <mxCell id="zA2tNoPU4KMe1xFhTegx-75" value="Product Page" style="edgeLabel;html=1;align=center;verticalAlign=middle;resizable=0;points=[];rotation=-90;" vertex="1" connectable="0" parent="zA2tNoPU4KMe1xFhTegx-74">
          <mxGeometry x="-0.0484" y="-2" relative="1" as="geometry">
            <mxPoint x="2" as="offset" />
          </mxGeometry>
        </mxCell>
        <mxCell id="zA2tNoPU4KMe1xFhTegx-84" style="edgeStyle=orthogonalEdgeStyle;rounded=0;orthogonalLoop=1;jettySize=auto;html=1;" edge="1" parent="1" source="zA2tNoPU4KMe1xFhTegx-1" target="zA2tNoPU4KMe1xFhTegx-81">
          <mxGeometry relative="1" as="geometry">
            <Array as="points">
              <mxPoint x="960" y="360" />
              <mxPoint x="960" y="640" />
            </Array>
          </mxGeometry>
        </mxCell>
        <mxCell id="zA2tNoPU4KMe1xFhTegx-87" value="Cart Item Request" style="edgeLabel;html=1;align=center;verticalAlign=middle;resizable=0;points=[];rotation=-90;" vertex="1" connectable="0" parent="zA2tNoPU4KMe1xFhTegx-84">
          <mxGeometry x="-0.0211" y="-2" relative="1" as="geometry">
            <mxPoint x="2" y="10" as="offset" />
          </mxGeometry>
        </mxCell>
        <mxCell id="zA2tNoPU4KMe1xFhTegx-1" value="Customer" style="rounded=0;whiteSpace=wrap;html=1;" vertex="1" parent="1">
          <mxGeometry x="800" y="350" width="120" height="40" as="geometry" />
        </mxCell>
        <mxCell id="zA2tNoPU4KMe1xFhTegx-32" style="edgeStyle=orthogonalEdgeStyle;rounded=0;orthogonalLoop=1;jettySize=auto;html=1;" edge="1" parent="1" source="zA2tNoPU4KMe1xFhTegx-3" target="zA2tNoPU4KMe1xFhTegx-11">
          <mxGeometry relative="1" as="geometry">
            <Array as="points">
              <mxPoint x="470" y="360" />
            </Array>
          </mxGeometry>
        </mxCell>
        <mxCell id="zA2tNoPU4KMe1xFhTegx-34" value="Login Info" style="edgeLabel;html=1;align=center;verticalAlign=middle;resizable=0;points=[];" vertex="1" connectable="0" parent="zA2tNoPU4KMe1xFhTegx-32">
          <mxGeometry x="0.7467" y="1" relative="1" as="geometry">
            <mxPoint x="-18" y="2" as="offset" />
          </mxGeometry>
        </mxCell>
        <mxCell id="zA2tNoPU4KMe1xFhTegx-47" style="edgeStyle=orthogonalEdgeStyle;rounded=0;orthogonalLoop=1;jettySize=auto;html=1;" edge="1" parent="1" source="zA2tNoPU4KMe1xFhTegx-3" target="zA2tNoPU4KMe1xFhTegx-42">
          <mxGeometry relative="1" as="geometry">
            <Array as="points">
              <mxPoint x="310" y="170" />
            </Array>
          </mxGeometry>
        </mxCell>
        <mxCell id="zA2tNoPU4KMe1xFhTegx-48" value="Queries" style="edgeLabel;html=1;align=center;verticalAlign=middle;resizable=0;points=[];rotation=-90;" vertex="1" connectable="0" parent="zA2tNoPU4KMe1xFhTegx-47">
          <mxGeometry x="0.3554" relative="1" as="geometry">
            <mxPoint y="-36" as="offset" />
          </mxGeometry>
        </mxCell>
        <mxCell id="zA2tNoPU4KMe1xFhTegx-3" value="Admin" style="rounded=0;whiteSpace=wrap;html=1;" vertex="1" parent="1">
          <mxGeometry x="400" y="160" width="120" height="40" as="geometry" />
        </mxCell>
        <mxCell id="zA2tNoPU4KMe1xFhTegx-17" style="edgeStyle=orthogonalEdgeStyle;rounded=0;orthogonalLoop=1;jettySize=auto;html=1;" edge="1" parent="1" source="zA2tNoPU4KMe1xFhTegx-4" target="zA2tNoPU4KMe1xFhTegx-11">
          <mxGeometry relative="1" as="geometry">
            <Array as="points">
              <mxPoint x="610" y="220" />
              <mxPoint x="610" y="220" />
            </Array>
          </mxGeometry>
        </mxCell>
        <mxCell id="zA2tNoPU4KMe1xFhTegx-18" value="Login Info" style="edgeLabel;html=1;align=center;verticalAlign=middle;resizable=0;points=[];rotation=-90;" vertex="1" connectable="0" parent="zA2tNoPU4KMe1xFhTegx-17">
          <mxGeometry x="-0.0803" y="3" relative="1" as="geometry">
            <mxPoint x="-4" as="offset" />
          </mxGeometry>
        </mxCell>
        <mxCell id="zA2tNoPU4KMe1xFhTegx-59" style="edgeStyle=orthogonalEdgeStyle;rounded=0;orthogonalLoop=1;jettySize=auto;html=1;" edge="1" parent="1" source="zA2tNoPU4KMe1xFhTegx-4" target="zA2tNoPU4KMe1xFhTegx-56">
          <mxGeometry relative="1" as="geometry">
            <Array as="points">
              <mxPoint x="630" y="70" />
            </Array>
          </mxGeometry>
        </mxCell>
        <mxCell id="zA2tNoPU4KMe1xFhTegx-64" value="Analytics Request" style="edgeLabel;html=1;align=center;verticalAlign=middle;resizable=0;points=[];" vertex="1" connectable="0" parent="zA2tNoPU4KMe1xFhTegx-59">
          <mxGeometry x="0.1569" y="-1" relative="1" as="geometry">
            <mxPoint x="-12" y="1" as="offset" />
          </mxGeometry>
        </mxCell>
        <mxCell id="zA2tNoPU4KMe1xFhTegx-4" value="Client" style="rounded=0;whiteSpace=wrap;html=1;" vertex="1" parent="1">
          <mxGeometry x="560" y="160" width="120" height="40" as="geometry" />
        </mxCell>
        <mxCell id="zA2tNoPU4KMe1xFhTegx-9" value="" style="group" vertex="1" connectable="0" parent="1">
          <mxGeometry x="555" y="520" width="125" height="40" as="geometry" />
        </mxCell>
        <mxCell id="zA2tNoPU4KMe1xFhTegx-6" value="" style="rounded=0;whiteSpace=wrap;html=1;" vertex="1" parent="zA2tNoPU4KMe1xFhTegx-9">
          <mxGeometry x="5" width="120" height="40" as="geometry" />
        </mxCell>
        <mxCell id="zA2tNoPU4KMe1xFhTegx-7" value="Database" style="rounded=0;whiteSpace=wrap;html=1;" vertex="1" parent="zA2tNoPU4KMe1xFhTegx-9">
          <mxGeometry x="25" width="100" height="40" as="geometry" />
        </mxCell>
        <mxCell id="zA2tNoPU4KMe1xFhTegx-8" value="D" style="text;html=1;align=center;verticalAlign=middle;resizable=0;points=[];autosize=1;strokeColor=none;fillColor=none;" vertex="1" parent="zA2tNoPU4KMe1xFhTegx-9">
          <mxGeometry y="5" width="30" height="30" as="geometry" />
        </mxCell>
        <mxCell id="zA2tNoPU4KMe1xFhTegx-16" value="" style="group" vertex="1" connectable="0" parent="1">
          <mxGeometry x="560" y="320" width="120" height="85" as="geometry" />
        </mxCell>
        <mxCell id="zA2tNoPU4KMe1xFhTegx-11" value="Verify Credentials" style="rounded=1;whiteSpace=wrap;html=1;" vertex="1" parent="zA2tNoPU4KMe1xFhTegx-16">
          <mxGeometry y="5" width="120" height="80" as="geometry" />
        </mxCell>
        <mxCell id="zA2tNoPU4KMe1xFhTegx-13" value="" style="endArrow=none;html=1;rounded=0;entryX=1;entryY=0.25;entryDx=0;entryDy=0;exitX=0;exitY=0.25;exitDx=0;exitDy=0;" edge="1" parent="zA2tNoPU4KMe1xFhTegx-16" source="zA2tNoPU4KMe1xFhTegx-11" target="zA2tNoPU4KMe1xFhTegx-11">
          <mxGeometry width="50" height="50" relative="1" as="geometry">
            <mxPoint x="-260" y="45" as="sourcePoint" />
            <mxPoint x="-210" y="-5" as="targetPoint" />
          </mxGeometry>
        </mxCell>
        <mxCell id="zA2tNoPU4KMe1xFhTegx-15" value="1" style="text;html=1;align=center;verticalAlign=middle;resizable=0;points=[];autosize=1;strokeColor=none;fillColor=none;" vertex="1" parent="zA2tNoPU4KMe1xFhTegx-16">
          <mxGeometry x="45" width="30" height="30" as="geometry" />
        </mxCell>
        <mxCell id="zA2tNoPU4KMe1xFhTegx-19" style="edgeStyle=orthogonalEdgeStyle;rounded=0;orthogonalLoop=1;jettySize=auto;html=1;" edge="1" parent="1" source="zA2tNoPU4KMe1xFhTegx-11" target="zA2tNoPU4KMe1xFhTegx-4">
          <mxGeometry relative="1" as="geometry">
            <Array as="points">
              <mxPoint x="630" y="260" />
              <mxPoint x="630" y="260" />
            </Array>
          </mxGeometry>
        </mxCell>
        <mxCell id="zA2tNoPU4KMe1xFhTegx-20" value="Verification Status" style="edgeLabel;html=1;align=center;verticalAlign=middle;resizable=0;points=[];rotation=-90;" vertex="1" connectable="0" parent="zA2tNoPU4KMe1xFhTegx-19">
          <mxGeometry x="0.1686" y="-2" relative="1" as="geometry">
            <mxPoint x="-2" y="18" as="offset" />
          </mxGeometry>
        </mxCell>
        <mxCell id="zA2tNoPU4KMe1xFhTegx-21" style="edgeStyle=orthogonalEdgeStyle;rounded=0;orthogonalLoop=1;jettySize=auto;html=1;" edge="1" parent="1" source="zA2tNoPU4KMe1xFhTegx-11" target="zA2tNoPU4KMe1xFhTegx-7">
          <mxGeometry relative="1" as="geometry">
            <Array as="points">
              <mxPoint x="610" y="460" />
              <mxPoint x="610" y="460" />
            </Array>
          </mxGeometry>
        </mxCell>
        <mxCell id="zA2tNoPU4KMe1xFhTegx-23" value="Login Info" style="edgeLabel;html=1;align=center;verticalAlign=middle;resizable=0;points=[];rotation=-90;" vertex="1" connectable="0" parent="zA2tNoPU4KMe1xFhTegx-21">
          <mxGeometry x="-0.1304" y="1" relative="1" as="geometry">
            <mxPoint x="-1" y="6" as="offset" />
          </mxGeometry>
        </mxCell>
        <mxCell id="zA2tNoPU4KMe1xFhTegx-24" style="edgeStyle=orthogonalEdgeStyle;rounded=0;orthogonalLoop=1;jettySize=auto;html=1;" edge="1" parent="1" source="zA2tNoPU4KMe1xFhTegx-7" target="zA2tNoPU4KMe1xFhTegx-11">
          <mxGeometry relative="1" as="geometry">
            <Array as="points">
              <mxPoint x="630" y="430" />
              <mxPoint x="630" y="430" />
            </Array>
          </mxGeometry>
        </mxCell>
        <mxCell id="zA2tNoPU4KMe1xFhTegx-26" value="Verification Status" style="edgeLabel;html=1;align=center;verticalAlign=middle;resizable=0;points=[];rotation=-90;" vertex="1" connectable="0" parent="zA2tNoPU4KMe1xFhTegx-24">
          <mxGeometry x="-0.0207" y="-3" relative="1" as="geometry">
            <mxPoint x="-3" as="offset" />
          </mxGeometry>
        </mxCell>
        <mxCell id="zA2tNoPU4KMe1xFhTegx-31" style="edgeStyle=orthogonalEdgeStyle;rounded=0;orthogonalLoop=1;jettySize=auto;html=1;" edge="1" parent="1" source="zA2tNoPU4KMe1xFhTegx-11" target="zA2tNoPU4KMe1xFhTegx-3">
          <mxGeometry relative="1" as="geometry">
            <Array as="points">
              <mxPoint x="450" y="380" />
            </Array>
          </mxGeometry>
        </mxCell>
        <mxCell id="zA2tNoPU4KMe1xFhTegx-35" value="Verification Status" style="edgeLabel;html=1;align=center;verticalAlign=middle;resizable=0;points=[];" vertex="1" connectable="0" parent="zA2tNoPU4KMe1xFhTegx-31">
          <mxGeometry x="-0.6264" y="2" relative="1" as="geometry">
            <mxPoint y="-2" as="offset" />
          </mxGeometry>
        </mxCell>
        <mxCell id="zA2tNoPU4KMe1xFhTegx-37" style="edgeStyle=orthogonalEdgeStyle;rounded=0;orthogonalLoop=1;jettySize=auto;html=1;" edge="1" parent="1" source="zA2tNoPU4KMe1xFhTegx-11" target="zA2tNoPU4KMe1xFhTegx-1">
          <mxGeometry relative="1" as="geometry">
            <Array as="points">
              <mxPoint x="740" y="380" />
              <mxPoint x="740" y="380" />
            </Array>
          </mxGeometry>
        </mxCell>
        <mxCell id="zA2tNoPU4KMe1xFhTegx-38" value="Verification Status" style="edgeLabel;html=1;align=center;verticalAlign=middle;resizable=0;points=[];" vertex="1" connectable="0" parent="zA2tNoPU4KMe1xFhTegx-37">
          <mxGeometry x="-0.5172" relative="1" as="geometry">
            <mxPoint x="22" as="offset" />
          </mxGeometry>
        </mxCell>
        <mxCell id="zA2tNoPU4KMe1xFhTegx-41" value="" style="group" vertex="1" connectable="0" parent="1">
          <mxGeometry x="260" y="490" width="120" height="85" as="geometry" />
        </mxCell>
        <mxCell id="zA2tNoPU4KMe1xFhTegx-42" value="Get Data" style="rounded=1;whiteSpace=wrap;html=1;" vertex="1" parent="zA2tNoPU4KMe1xFhTegx-41">
          <mxGeometry y="5" width="120" height="80" as="geometry" />
        </mxCell>
        <mxCell id="zA2tNoPU4KMe1xFhTegx-43" value="" style="endArrow=none;html=1;rounded=0;entryX=1;entryY=0.25;entryDx=0;entryDy=0;exitX=0;exitY=0.25;exitDx=0;exitDy=0;" edge="1" parent="zA2tNoPU4KMe1xFhTegx-41" source="zA2tNoPU4KMe1xFhTegx-42" target="zA2tNoPU4KMe1xFhTegx-42">
          <mxGeometry width="50" height="50" relative="1" as="geometry">
            <mxPoint x="-260" y="45" as="sourcePoint" />
            <mxPoint x="-210" y="-5" as="targetPoint" />
          </mxGeometry>
        </mxCell>
        <mxCell id="zA2tNoPU4KMe1xFhTegx-44" value="1" style="text;html=1;align=center;verticalAlign=middle;resizable=0;points=[];autosize=1;strokeColor=none;fillColor=none;" vertex="1" parent="zA2tNoPU4KMe1xFhTegx-41">
          <mxGeometry x="45" width="30" height="30" as="geometry" />
        </mxCell>
        <mxCell id="zA2tNoPU4KMe1xFhTegx-49" style="edgeStyle=orthogonalEdgeStyle;rounded=0;orthogonalLoop=1;jettySize=auto;html=1;" edge="1" parent="1" source="zA2tNoPU4KMe1xFhTegx-42" target="zA2tNoPU4KMe1xFhTegx-3">
          <mxGeometry relative="1" as="geometry">
            <Array as="points">
              <mxPoint x="330" y="190" />
            </Array>
          </mxGeometry>
        </mxCell>
        <mxCell id="zA2tNoPU4KMe1xFhTegx-50" value="Data" style="edgeLabel;html=1;align=center;verticalAlign=middle;resizable=0;points=[];rotation=-90;" vertex="1" connectable="0" parent="zA2tNoPU4KMe1xFhTegx-49">
          <mxGeometry x="-0.0644" relative="1" as="geometry">
            <mxPoint y="6" as="offset" />
          </mxGeometry>
        </mxCell>
        <mxCell id="zA2tNoPU4KMe1xFhTegx-51" style="edgeStyle=orthogonalEdgeStyle;rounded=0;orthogonalLoop=1;jettySize=auto;html=1;entryX=0;entryY=0.5;entryDx=0;entryDy=0;" edge="1" parent="1" source="zA2tNoPU4KMe1xFhTegx-42">
          <mxGeometry relative="1" as="geometry">
            <mxPoint x="360" y="532.5238095238094" as="sourcePoint" />
            <mxPoint x="560" y="530" as="targetPoint" />
            <Array as="points">
              <mxPoint x="520" y="530" />
              <mxPoint x="520" y="530" />
            </Array>
          </mxGeometry>
        </mxCell>
        <mxCell id="zA2tNoPU4KMe1xFhTegx-53" value="Queries" style="edgeLabel;html=1;align=center;verticalAlign=middle;resizable=0;points=[];" vertex="1" connectable="0" parent="zA2tNoPU4KMe1xFhTegx-51">
          <mxGeometry x="-0.1958" y="-2" relative="1" as="geometry">
            <mxPoint as="offset" />
          </mxGeometry>
        </mxCell>
        <mxCell id="zA2tNoPU4KMe1xFhTegx-52" style="edgeStyle=orthogonalEdgeStyle;rounded=0;orthogonalLoop=1;jettySize=auto;html=1;exitX=0;exitY=0.75;exitDx=0;exitDy=0;" edge="1" parent="1" source="zA2tNoPU4KMe1xFhTegx-6" target="zA2tNoPU4KMe1xFhTegx-42">
          <mxGeometry relative="1" as="geometry">
            <Array as="points">
              <mxPoint x="430" y="550" />
              <mxPoint x="430" y="550" />
            </Array>
          </mxGeometry>
        </mxCell>
        <mxCell id="zA2tNoPU4KMe1xFhTegx-54" value="Data" style="edgeLabel;html=1;align=center;verticalAlign=middle;resizable=0;points=[];" vertex="1" connectable="0" parent="zA2tNoPU4KMe1xFhTegx-52">
          <mxGeometry x="-0.195" y="3" relative="1" as="geometry">
            <mxPoint as="offset" />
          </mxGeometry>
        </mxCell>
        <mxCell id="zA2tNoPU4KMe1xFhTegx-55" value="" style="group" vertex="1" connectable="0" parent="1">
          <mxGeometry x="170" y="40" width="120" height="85" as="geometry" />
        </mxCell>
        <mxCell id="zA2tNoPU4KMe1xFhTegx-56" value="Get Analytics" style="rounded=1;whiteSpace=wrap;html=1;" vertex="1" parent="zA2tNoPU4KMe1xFhTegx-55">
          <mxGeometry y="5" width="120" height="80" as="geometry" />
        </mxCell>
        <mxCell id="zA2tNoPU4KMe1xFhTegx-57" value="" style="endArrow=none;html=1;rounded=0;entryX=1;entryY=0.25;entryDx=0;entryDy=0;exitX=0;exitY=0.25;exitDx=0;exitDy=0;" edge="1" parent="zA2tNoPU4KMe1xFhTegx-55" source="zA2tNoPU4KMe1xFhTegx-56" target="zA2tNoPU4KMe1xFhTegx-56">
          <mxGeometry width="50" height="50" relative="1" as="geometry">
            <mxPoint x="-260" y="45" as="sourcePoint" />
            <mxPoint x="-210" y="-5" as="targetPoint" />
          </mxGeometry>
        </mxCell>
        <mxCell id="zA2tNoPU4KMe1xFhTegx-58" value="1" style="text;html=1;align=center;verticalAlign=middle;resizable=0;points=[];autosize=1;strokeColor=none;fillColor=none;" vertex="1" parent="zA2tNoPU4KMe1xFhTegx-55">
          <mxGeometry x="45" width="30" height="30" as="geometry" />
        </mxCell>
        <mxCell id="zA2tNoPU4KMe1xFhTegx-61" style="edgeStyle=orthogonalEdgeStyle;rounded=0;orthogonalLoop=1;jettySize=auto;html=1;" edge="1" parent="1" source="zA2tNoPU4KMe1xFhTegx-56" target="zA2tNoPU4KMe1xFhTegx-4">
          <mxGeometry relative="1" as="geometry">
            <Array as="points">
              <mxPoint x="610" y="90" />
            </Array>
          </mxGeometry>
        </mxCell>
        <mxCell id="zA2tNoPU4KMe1xFhTegx-63" value="Analytics" style="edgeLabel;html=1;align=center;verticalAlign=middle;resizable=0;points=[];" vertex="1" connectable="0" parent="zA2tNoPU4KMe1xFhTegx-61">
          <mxGeometry x="0.0111" y="-1" relative="1" as="geometry">
            <mxPoint x="-27" y="-1" as="offset" />
          </mxGeometry>
        </mxCell>
        <mxCell id="zA2tNoPU4KMe1xFhTegx-66" style="edgeStyle=orthogonalEdgeStyle;rounded=0;orthogonalLoop=1;jettySize=auto;html=1;" edge="1" parent="1" source="zA2tNoPU4KMe1xFhTegx-7" target="zA2tNoPU4KMe1xFhTegx-56">
          <mxGeometry relative="1" as="geometry">
            <Array as="points">
              <mxPoint x="590" y="590" />
              <mxPoint x="240" y="590" />
            </Array>
          </mxGeometry>
        </mxCell>
        <mxCell id="zA2tNoPU4KMe1xFhTegx-69" value="Queries" style="edgeLabel;html=1;align=center;verticalAlign=middle;resizable=0;points=[];" vertex="1" connectable="0" parent="zA2tNoPU4KMe1xFhTegx-66">
          <mxGeometry x="-0.5241" y="1" relative="1" as="geometry">
            <mxPoint x="-9" y="-1" as="offset" />
          </mxGeometry>
        </mxCell>
        <mxCell id="zA2tNoPU4KMe1xFhTegx-67" style="edgeStyle=orthogonalEdgeStyle;rounded=0;orthogonalLoop=1;jettySize=auto;html=1;" edge="1" parent="1" source="zA2tNoPU4KMe1xFhTegx-7" target="zA2tNoPU4KMe1xFhTegx-56">
          <mxGeometry relative="1" as="geometry">
            <Array as="points">
              <mxPoint x="610" y="610" />
              <mxPoint x="220" y="610" />
            </Array>
          </mxGeometry>
        </mxCell>
        <mxCell id="zA2tNoPU4KMe1xFhTegx-68" value="Data" style="edgeLabel;html=1;align=center;verticalAlign=middle;resizable=0;points=[];" vertex="1" connectable="0" parent="zA2tNoPU4KMe1xFhTegx-67">
          <mxGeometry x="-0.4568" y="4" relative="1" as="geometry">
            <mxPoint y="-4" as="offset" />
          </mxGeometry>
        </mxCell>
        <mxCell id="zA2tNoPU4KMe1xFhTegx-70" value="" style="group" vertex="1" connectable="0" parent="1">
          <mxGeometry x="800" y="490" width="120" height="85" as="geometry" />
        </mxCell>
        <mxCell id="zA2tNoPU4KMe1xFhTegx-71" value="Get Product Listings" style="rounded=1;whiteSpace=wrap;html=1;" vertex="1" parent="zA2tNoPU4KMe1xFhTegx-70">
          <mxGeometry y="5" width="120" height="80" as="geometry" />
        </mxCell>
        <mxCell id="zA2tNoPU4KMe1xFhTegx-72" value="" style="endArrow=none;html=1;rounded=0;entryX=1;entryY=0.25;entryDx=0;entryDy=0;exitX=0;exitY=0.25;exitDx=0;exitDy=0;" edge="1" parent="zA2tNoPU4KMe1xFhTegx-70" source="zA2tNoPU4KMe1xFhTegx-71" target="zA2tNoPU4KMe1xFhTegx-71">
          <mxGeometry width="50" height="50" relative="1" as="geometry">
            <mxPoint x="-260" y="45" as="sourcePoint" />
            <mxPoint x="-210" y="-5" as="targetPoint" />
          </mxGeometry>
        </mxCell>
        <mxCell id="zA2tNoPU4KMe1xFhTegx-73" value="1" style="text;html=1;align=center;verticalAlign=middle;resizable=0;points=[];autosize=1;strokeColor=none;fillColor=none;" vertex="1" parent="zA2tNoPU4KMe1xFhTegx-70">
          <mxGeometry x="45" width="30" height="30" as="geometry" />
        </mxCell>
        <mxCell id="zA2tNoPU4KMe1xFhTegx-77" style="edgeStyle=orthogonalEdgeStyle;rounded=0;orthogonalLoop=1;jettySize=auto;html=1;" edge="1" parent="1" source="zA2tNoPU4KMe1xFhTegx-71" target="zA2tNoPU4KMe1xFhTegx-1">
          <mxGeometry relative="1" as="geometry">
            <Array as="points">
              <mxPoint x="850" y="400" />
              <mxPoint x="850" y="400" />
            </Array>
          </mxGeometry>
        </mxCell>
        <mxCell id="zA2tNoPU4KMe1xFhTegx-78" value="Product Listings" style="edgeLabel;html=1;align=center;verticalAlign=middle;resizable=0;points=[];rotation=-90;" vertex="1" connectable="0" parent="zA2tNoPU4KMe1xFhTegx-77">
          <mxGeometry x="0.0166" y="1" relative="1" as="geometry">
            <mxPoint y="3" as="offset" />
          </mxGeometry>
        </mxCell>
        <mxCell id="zA2tNoPU4KMe1xFhTegx-80" value="" style="group" vertex="1" connectable="0" parent="1">
          <mxGeometry x="800" y="580" width="120" height="85" as="geometry" />
        </mxCell>
        <mxCell id="zA2tNoPU4KMe1xFhTegx-81" value="Get Cart Items" style="rounded=1;whiteSpace=wrap;html=1;" vertex="1" parent="zA2tNoPU4KMe1xFhTegx-80">
          <mxGeometry y="5" width="120" height="80" as="geometry" />
        </mxCell>
        <mxCell id="zA2tNoPU4KMe1xFhTegx-82" value="" style="endArrow=none;html=1;rounded=0;entryX=1;entryY=0.25;entryDx=0;entryDy=0;exitX=0;exitY=0.25;exitDx=0;exitDy=0;" edge="1" parent="zA2tNoPU4KMe1xFhTegx-80" source="zA2tNoPU4KMe1xFhTegx-81" target="zA2tNoPU4KMe1xFhTegx-81">
          <mxGeometry width="50" height="50" relative="1" as="geometry">
            <mxPoint x="-260" y="45" as="sourcePoint" />
            <mxPoint x="-210" y="-5" as="targetPoint" />
          </mxGeometry>
        </mxCell>
        <mxCell id="zA2tNoPU4KMe1xFhTegx-83" value="1" style="text;html=1;align=center;verticalAlign=middle;resizable=0;points=[];autosize=1;strokeColor=none;fillColor=none;" vertex="1" parent="zA2tNoPU4KMe1xFhTegx-80">
          <mxGeometry x="45" width="30" height="30" as="geometry" />
        </mxCell>
        <mxCell id="zA2tNoPU4KMe1xFhTegx-85" style="edgeStyle=orthogonalEdgeStyle;rounded=0;orthogonalLoop=1;jettySize=auto;html=1;" edge="1" parent="1" source="zA2tNoPU4KMe1xFhTegx-81" target="zA2tNoPU4KMe1xFhTegx-1">
          <mxGeometry relative="1" as="geometry">
            <Array as="points">
              <mxPoint x="940" y="620" />
              <mxPoint x="940" y="380" />
            </Array>
          </mxGeometry>
        </mxCell>
        <mxCell id="zA2tNoPU4KMe1xFhTegx-88" value="Cart Items" style="edgeLabel;html=1;align=center;verticalAlign=middle;resizable=0;points=[];rotation=-90;" vertex="1" connectable="0" parent="zA2tNoPU4KMe1xFhTegx-85">
          <mxGeometry x="-0.0984" y="2" relative="1" as="geometry">
            <mxPoint y="-12" as="offset" />
          </mxGeometry>
        </mxCell>
        <mxCell id="zA2tNoPU4KMe1xFhTegx-92" style="edgeStyle=orthogonalEdgeStyle;rounded=0;orthogonalLoop=1;jettySize=auto;html=1;" edge="1" parent="1" source="zA2tNoPU4KMe1xFhTegx-71" target="zA2tNoPU4KMe1xFhTegx-7">
          <mxGeometry relative="1" as="geometry">
            <Array as="points">
              <mxPoint x="770" y="530" />
              <mxPoint x="770" y="530" />
            </Array>
          </mxGeometry>
        </mxCell>
        <mxCell id="zA2tNoPU4KMe1xFhTegx-95" value="Product Range" style="edgeLabel;html=1;align=center;verticalAlign=middle;resizable=0;points=[];" vertex="1" connectable="0" parent="zA2tNoPU4KMe1xFhTegx-92">
          <mxGeometry x="0.05" y="2" relative="1" as="geometry">
            <mxPoint x="3" y="-2" as="offset" />
          </mxGeometry>
        </mxCell>
        <mxCell id="zA2tNoPU4KMe1xFhTegx-93" style="edgeStyle=orthogonalEdgeStyle;rounded=0;orthogonalLoop=1;jettySize=auto;html=1;" edge="1" parent="1" source="zA2tNoPU4KMe1xFhTegx-7" target="zA2tNoPU4KMe1xFhTegx-71">
          <mxGeometry relative="1" as="geometry">
            <Array as="points">
              <mxPoint x="710" y="550" />
              <mxPoint x="710" y="550" />
            </Array>
          </mxGeometry>
        </mxCell>
        <mxCell id="zA2tNoPU4KMe1xFhTegx-94" value="Product Listing Data" style="edgeLabel;html=1;align=center;verticalAlign=middle;resizable=0;points=[];" vertex="1" connectable="0" parent="zA2tNoPU4KMe1xFhTegx-93">
          <mxGeometry x="0.153" y="-2" relative="1" as="geometry">
            <mxPoint x="-14" y="-2" as="offset" />
          </mxGeometry>
        </mxCell>
        <mxCell id="zA2tNoPU4KMe1xFhTegx-97" style="edgeStyle=orthogonalEdgeStyle;rounded=0;orthogonalLoop=1;jettySize=auto;html=1;" edge="1" parent="1" source="zA2tNoPU4KMe1xFhTegx-81" target="zA2tNoPU4KMe1xFhTegx-7">
          <mxGeometry relative="1" as="geometry">
            <Array as="points">
              <mxPoint x="630" y="640" />
            </Array>
          </mxGeometry>
        </mxCell>
        <mxCell id="zA2tNoPU4KMe1xFhTegx-100" value="Cart Item Query" style="edgeLabel;html=1;align=center;verticalAlign=middle;resizable=0;points=[];" vertex="1" connectable="0" parent="zA2tNoPU4KMe1xFhTegx-97">
          <mxGeometry x="-0.4802" y="1" relative="1" as="geometry">
            <mxPoint as="offset" />
          </mxGeometry>
        </mxCell>
        <mxCell id="zA2tNoPU4KMe1xFhTegx-98" style="edgeStyle=orthogonalEdgeStyle;rounded=0;orthogonalLoop=1;jettySize=auto;html=1;" edge="1" parent="1" source="zA2tNoPU4KMe1xFhTegx-7" target="zA2tNoPU4KMe1xFhTegx-81">
          <mxGeometry relative="1" as="geometry">
            <Array as="points">
              <mxPoint x="650" y="620" />
            </Array>
          </mxGeometry>
        </mxCell>
        <mxCell id="zA2tNoPU4KMe1xFhTegx-99" value="Cart Items" style="edgeLabel;html=1;align=center;verticalAlign=middle;resizable=0;points=[];" vertex="1" connectable="0" parent="zA2tNoPU4KMe1xFhTegx-98">
          <mxGeometry x="0.3441" y="1" relative="1" as="geometry">
            <mxPoint as="offset" />
          </mxGeometry>
        </mxCell>
        <mxCell id="zA2tNoPU4KMe1xFhTegx-101" value="&lt;font style=&quot;font-size: 24px;&quot;&gt;DB_DDnD_DFD&lt;/font&gt;" style="text;html=1;align=center;verticalAlign=middle;resizable=0;points=[];autosize=1;strokeColor=none;fillColor=none;" vertex="1" parent="1">
          <mxGeometry x="740" y="150" width="200" height="40" as="geometry" />
        </mxCell>
      </root>
    </mxGraphModel>
  </diagram>
</mxfile>
